<svg id="svg4268" xmlns="http://www.w3.org/2000/svg" xmlns:xlink="http://www.w3.org/1999/xlink" width="380" height="90" viewBox="0 0 380 90"><style>.st2,.st3{fill:none;stroke:#fff;stroke-width:1.7716}.st3{stroke:#006596}.st4{fill:#006596}</style><g id="g6844" transform="translate(7.5 8.921)"><radialGradient id="circle6865_1_" cx="66.588" cy="-183.005" r="31.302" gradientTransform="translate(-55.632 290.492) scale(1.3902)" gradientUnits="userSpaceOnUse"><stop offset="0" stop-color="#fff"></stop><stop offset=".418" stop-color="#fcfcfd" stop-opacity=".791"></stop><stop offset=".569" stop-color="#f3f5f8" stop-opacity=".716"></stop><stop offset=".676" stop-color="#e7ebf2" stop-opacity=".662"></stop><stop offset=".763" stop-color="#d6deea" stop-opacity=".619"></stop><stop offset=".838" stop-color="#c0cee1" stop-opacity=".581"></stop><stop offset=".903" stop-color="#a7bcd6" stop-opacity=".548"></stop><stop offset=".961" stop-color="#8aa9cb" stop-opacity=".519"></stop><stop offset="1" stop-color="#749bc2" stop-opacity=".5"></stop></radialGradient><circle id="circle6865" cx="36.9" cy="36.1" r="43.4" fill="url(#circle6865_1_)"></circle><defs><circle id="SVGID_1_" cx="36.9" cy="36.1" r="43.4"></circle></defs><clipPath id="SVGID_2_"><use xlink:href="#SVGID_1_" overflow="visible"></use></clipPath><g id="g6871" clip-path="url(#SVGID_2_)"><g id="g3447"><path id="path4444" class="st2" d="M67.9 33.2c-.9.9-2 1.7-3.1 2.5-9.2 6.5-21.1 6.2-29.9.2"></path><path id="path4452" class="st2" d="M71 35.7c-1.2 1.2-2.5 2.3-3.9 3.3-10.9 7.6-24.8 7.2-35.1-.1"></path><path id="path4440" class="st2" d="M31.5 33c-1.2-1.1-2.3-2.4-3.3-3.8-8.3-12-5.4-28.3 6.5-36.7S62.9-12.9 71.3-1c6.7 9.6 6.2 21.9-.5 30.8"></path><path id="path4448" class="st2" d="M28.8 36.1c-1.5-1.4-2.8-3-4.1-4.7-9.7-13.8-6.3-32.8 7.5-42.3 13.7-9.7 32.8-6.3 42.3 7.5 7.8 11.2 7.1 25.7-.8 36"></path><path id="path4456" class="st2" d="M23.6 12.4c5.6 1.6 10.6 5.1 14.1 10.2s5.1 11 4.7 16.7"></path><path id="path4460" class="st2" d="M41.8 43.6c-1.4 6.1-5 11.8-10.6 15.5C19.4 67.5 3 64.6-5.4 52.6c-8.4-11.9-5.5-28.3 6.5-36.7C6.6 12.1 13 10.6 19 11.3"></path><path id="path4464" class="st2" d="M45.8 44.5c-1.7 7-5.8 13.5-12.2 17.8C19.9 72 .9 68.7-8.7 54.9c-9.7-13.7-6.3-32.8 7.5-42.3 6.5-4.5 14-6.2 21.3-5.3"></path><path id="path4468" class="st2" d="M24.3 8.1C30.9 9.9 36.9 14 41.1 20c4.3 6.2 6.1 13.5 5.4 20.4"></path><path id="path4472" class="st2" d="M23.7 62.8c-3.5-12.2.9-25.6 11.9-33.2 1.5-1 3-1.9 4.5-2.6"></path><path id="path4476" class="st2" d="M44 25.4c12.3-3.8 26.1.5 33.9 11.7 9.7 13.7 6.3 32.8-7.5 42.3-13.7 9.7-32.8 6.3-42.3-7.5-1.2-1.8-2.3-3.6-3.1-5.5"></path><path id="path4480" class="st2" d="M27.7 61.4C24.9 51 28.7 39.6 38 33.1c1.1-.8 2.2-1.4 3.4-2"></path><path id="path4484" class="st2" d="M45.3 29.5c10.6-3.3 22.5.5 29.3 10.1 8.4 11.9 5.5 28.3-6.5 36.7-11.9 8.4-28.3 5.5-36.7-6.5-1-1.4-1.9-3-2.5-4.5"></path></g><g id="g6935"><path id="path4504" class="st3" d="M22.4 11.1C28 12.7 33 16.2 36.5 21.2c3.6 5.1 5.1 11 4.7 16.7"></path><path id="path4516" class="st3" d="M23 6.8c6.6 1.8 12.6 5.9 16.8 11.9 4.3 6.2 6.1 13.5 5.4 20.4"></path><path id="path4488" class="st3" d="M30.3 31.8C29.1 30.7 28 29.4 27 28 18.6 16.1 21.5-.3 33.5-8.7c11.9-8.4 28.3-5.5 36.7 6.5 6.7 9.6 6.2 21.9-.5 30.8"></path><path id="path4500" class="st3" d="M69.8 34.4c-1.2 1.2-2.5 2.3-3.9 3.3-10.9 7.6-24.8 7.2-35.1-.1"></path><path id="path4528" class="st3" d="M26.5 60.2c-2.8-10.4 1-21.8 10.3-28.3 1.1-.8 2.2-1.4 3.4-2"></path><path id="path4492" class="st3" d="M66.6 31.9c-.9.9-2 1.7-3.1 2.5-9.2 6.5-21.1 6.2-29.9.2"></path><path id="path4496" class="st3" d="M27.6 34.9c-1.5-1.4-2.8-3-4.1-4.7-9.7-13.7-6.3-32.8 7.5-42.3 13.7-9.7 32.8-6.3 42.3 7.5 7.8 11.2 7.1 25.7-.8 36"></path><path id="path4508" class="st3" d="M40.6 42.3c-1.4 6.1-5 11.8-10.6 15.5-11.9 8.4-28.3 5.5-36.6-6.4C-14.9 39.6-12 23.1 0 14.8c5.5-3.8 11.9-5.3 17.9-4.6"></path><path id="path4512" class="st3" d="M44.5 43.3c-1.7 7-5.8 13.5-12.2 17.8C18.6 70.8-.4 67.4-10 53.6c-9.7-13.7-6.3-32.8 7.5-42.3C4 6.7 11.5 5.1 18.8 6"></path><path id="path4520" class="st3" d="M22.5 61.5c-3.5-12.2.9-25.6 11.8-33.2 1.5-1 3-1.9 4.5-2.6"></path><path id="path4524" class="st3" d="M42.7 24.1c12.3-3.8 26.1.5 33.9 11.7 9.7 13.7 6.3 32.8-7.5 42.3-13.7 9.7-32.8 6.3-42.3-7.5-1.2-1.8-2.3-3.6-3.1-5.5"></path><path id="path4532" class="st3" d="M44.1 28.2c10.6-3.3 22.5.5 29.3 10.1 8.4 11.9 5.5 28.3-6.5 36.7-11.9 8.4-28.3 5.5-36.7-6.5-1-1.4-1.9-3-2.5-4.5"></path></g></g></g><path id="path4280" class="st4" d="M104.1 52.4v1.5h1.8V65h1.9V53.8h2.3v-1.5h-2.3v-2.1c0-1 .3-1.9 2.3-1.8V47c-.3 0-.5-.1-.9-.1-1.7 0-3.3.5-3.3 3v2.5h-1.8"></path><path id="path4282" class="st4" d="M116.8 63.5c-2 0-2.4-1.5-2.4-5.6 0-3.5 1-4.2 2.4-4.2 1.5 0 2.4.8 2.4 4.2 0 4.1-.4 5.6-2.4 5.6zm0 1.6c2.5 0 4.4-.8 4.4-6.4 0-3.7-.4-6.7-4.4-6.7s-4.4 3-4.4 6.7c0 5.6 2 6.4 4.4 6.4"></path><path id="path4284" class="st4" d="M126.8 52.4h-1.9V65h1.9v-7.4c0-1.7.5-3.4 2.6-3.4.2 0 .3 0 .5.1.2 0 .3 0 .5.1v-2.1c-1.8 0-2.8.2-3.6 2.1v-2"></path><path id="path4286" class="st4" d="M140.1 64.9h2.1l1.2-4.3h6.4l1.2 4.3h2.4L148 47h-2.7l-5.2 17.9zm9.2-6.3H144l2.6-9.6h.1l2.6 9.6"></path><path id="path4288" class="st4" d="M162.2 58.1c0 2.5 0 5.4-2.1 5.4-2.4 0-2.4-2.7-2.4-4.6 0-3.4.3-5.1 2.3-5.1 2.1-.1 2.2 2.6 2.2 4.3zm0-4.6c-.7-1-1.5-1.5-2.6-1.5-3.7 0-3.8 3.6-3.8 6.8 0 5.5 1.9 6.3 3.7 6.3 1.2 0 2-.6 2.7-1.7v1.5h1.9V47h-1.9v6.5"></path><path id="path4290" class="st4" d="M170.5 64.9h2.5l3.6-12.6h-2L171.8 63l-2.7-10.7H167l3.5 12.6"></path><path id="path4292" class="st4" d="M185.2 58.6c.2 4.1-1.2 4.8-2.4 4.8-1.3 0-1.8-1.1-1.8-2.3 0-2.6 2.4-2.5 4.2-2.5zm0 6.3h2.1c-.1-1-.2-2-.2-3v-6.1c0-2.1-.8-3.8-3.8-3.8-2.5 0-3.8 1-3.9 3.8h2c-.1-1.3.6-2.3 1.8-2.3 2 0 2 1.8 2 3.5-2.6-.1-6.1.1-6.1 3.9 0 2.4.7 4.1 3.2 4.1 1.5 0 2.3-.6 2.9-2.1v2"></path><path id="path4294" class="st4" d="M199.7 64.9v-8.7c0-2.5-.6-4.1-3.1-4.1-1.5 0-2.4.4-3.1 1.9h-.1v-1.7h-2c.1.9.1 1.7.1 2.6v10h1.9v-7.5c0-1.7.3-3.7 2.4-3.7 1.6 0 2 1.1 2 2.4v8.7l1.9.1"></path><path id="path4296" class="st4" d="M211.7 56.3c.1-2.8-1.2-4.3-3.6-4.3-4 0-4.4 3-4.4 6.7 0 5.6 2 6.4 4.4 6.4 1.3 0 3.7-.9 3.7-4.4h-2c.1 2.3-1.2 2.8-1.7 2.8-2 0-2.4-1.5-2.4-5.6 0-3.5 1-4.2 2.4-4.2.7 0 1.7.5 1.6 2.6h2"></path><path id="path4298" class="st4" d="M217.8 57.7c0-3.5 1-4.1 2.2-4.1 1.4 0 2.3.5 2.3 4.1h-4.5zm6.5 1.5v-1.1c0-4.2-.8-6.1-4.1-6.1-4 0-4.4 3.1-4.4 6.7 0 5.6 2 6.4 4.4 6.4s4-1.3 4-4.1h-2.1c-.1 1.3-.7 2.4-2 2.4-1.5 0-2.3-.7-2.3-4.2h6.5"></path><path id="path4300" class="st4" d="M234.2 58.1c0 2.5 0 5.4-2.1 5.4-2.4 0-2.4-2.7-2.4-4.6 0-3.4.3-5.1 2.3-5.1 2.2-.1 2.2 2.6 2.2 4.3zm0-4.6c-.7-1-1.5-1.5-2.6-1.5-3.7 0-3.8 3.6-3.8 6.8 0 5.5 1.9 6.3 3.7 6.3 1.2 0 2-.6 2.7-1.7v1.5h1.9V47h-1.9v6.5"></path><path id="path4302" class="st4" d="M248.2 59.5c0 1.7 0 5.8 4.8 5.7 2.7 0 5.2-1.2 5.2-5 0-5.7-7.4-5.1-7.4-9.1 0-1.9 1.3-2.7 2.5-2.7 2 0 2.6 1.3 2.6 3.3h2.2c.1-3.7-1.6-5.3-4.6-5.3-2.8 0-4.9 1.7-4.9 4.9 0 5.4 7.4 5 7.4 9 0 2.1-1.3 2.9-3 2.9-1.4 0-2.8-.8-2.8-3.2v-.5h-2"></path><path id="path4304" class="st4" d="M260.2 52.4v1.5h1.9v9c0 1.5.8 2.3 2.6 2.3.6 0 1.2-.2 1.9-.2v-1.6c-.4 0-.7.1-.9.1-1.7 0-1.7-1-1.7-1.8V54h2.5v-1.6H264v-3.3l-1.9.9v2.4h-1.9"></path><path id="path4306" class="st4" d="M275.3 60.6c0 2.1-1.3 2.9-2.3 2.9-1.3 0-2-1-2-2.5v-8.7h-1.9v9.6c0 2.1 1.1 3.3 3.1 3.3 1.2 0 2.3-.6 2.9-1.8h.1v1.5h2c-.1-.9-.1-1.7-.1-2.6v-10h-1.9l.1 8.3"></path><path id="path4308" class="st4" d="M287.4 58.1c0 2.5 0 5.4-2.1 5.4-2.4 0-2.4-2.7-2.4-4.6 0-3.4.3-5.1 2.3-5.1 2.1-.1 2.2 2.6 2.2 4.3zm0-4.6c-.7-1-1.5-1.5-2.6-1.5-3.7 0-3.8 3.6-3.8 6.8 0 5.5 1.9 6.3 3.7 6.3 1.2 0 2-.6 2.7-1.7v1.5h1.9V47h-1.9v6.5"></path><path id="path4310" class="st4" d="M295.3 52.4h-1.9V65h1.9V52.4zm-2-3.3h2.1v-2.2h-2.1v2.2"></path><path id="path4312" class="st4" d="M301.2 57.7c0-3.5 1-4.1 2.2-4.1 1.4 0 2.3.5 2.3 4.1h-4.5zm6.5 1.5v-1.1c0-4.2-.8-6.1-4.1-6.1-4 0-4.4 3.1-4.4 6.7 0 5.6 2 6.4 4.4 6.4 2.4 0 4-1.3 4-4.1h-2.1c-.1 1.3-.7 2.4-2 2.4-1.5 0-2.3-.7-2.3-4.2h6.5"></path><path id="path4314" class="st4" d="M319 61.3c0-3.8-5.8-3.8-5.8-6 0-1.1.8-1.7 1.8-1.7 1.2 0 1.8.7 1.8 2h2.1c.2-2.5-1.6-3.6-3.7-3.6-3.3 0-4 2.1-4 3.4 0 3.8 5.8 3.8 5.8 6.1 0 1.3-.9 1.9-2 1.9-1.9 0-1.9-1.7-1.9-2.4H311c-.1 2.9 1.5 4.1 4 4.1 2.3 0 4-1 4-3.8"></path><path id="path4316" class="st4" d="M108.8 39.5v-7.9h4.9v-2.8h-4.9v-4.6h5.1v-2.8h-8.6v17.9l3.5.2"></path><path id="path4318" class="st4" d="M115.7 21.6h3.5v17.9h-3.5V21.6z"></path><path id="path4320" class="st4" d="M124.3 39.5l.9-4h4.7l.9 4h3.7L130 21.6h-4.5L121 39.5h3.3zm5-6.8H126l1.6-7.8 1.7 7.8"></path><path id="path4322" class="st4" d="M146.7 34.6c0-5.7-7-5.4-7-8.8 0-1.2.7-1.9 1.8-1.9 1.4 0 1.6 1.4 1.6 2.7h3.4c.2-3.8-1.5-5.4-4.8-5.4-4.2 0-5.5 2.2-5.5 5.1 0 5.4 7 5.6 7 8.8 0 1.2-.6 2-1.7 2-1.9 0-2-1.4-2-3.2H136c-.2 3.1.6 5.9 4.9 5.9 2.6 0 5.8-.5 5.8-5.2"></path><path id="path4324" class="st4" d="M157.5 39.5v-8.2h5.8v-2h-5.8v-5.8h6.1v-2h-8.2v17.9h2.1"></path><path id="path4326" class="st4" d="M167.7 26.9h-1.9v12.6h1.9v-7.4c0-1.7.5-3.4 2.6-3.4h.5c.2 0 .3 0 .5.1v-2.1c-1.8 0-2.8.2-3.6 2.2v-2"></path><path id="path4328" class="st4" d="M179.3 33.2c.2 4.1-1.2 4.8-2.4 4.8-1.3 0-1.8-1.1-1.8-2.3.1-2.6 2.5-2.4 4.2-2.5zm.1 6.3h2.1c-.1-1-.2-2-.2-3v-6.1c0-2.1-.8-3.8-3.8-3.8-2.5 0-3.8 1-3.9 3.8h2c-.1-1.3.6-2.2 1.8-2.2 2 0 2 1.8 2 3.5-2.6-.1-6.1.1-6.1 3.9 0 2.4.7 4.1 3.2 4.1 1.5 0 2.3-.6 2.9-2.1v1.9"></path><path id="path4330" class="st4" d="M193.3 39.5v-8.7c0-2.5-.6-4.1-3.1-4.1-1.5 0-2.4.4-3.1 1.9h-.1V27h-2c.1.9.1 1.7.1 2.6v10h1.9v-7.5c0-1.7.3-3.7 2.4-3.7 1.6 0 2 1.1 2 2.4v8.7h1.9"></path><path id="path4332" class="st4" d="M198.6 32.4l4.2 7.1h2.4l-4.6-7.2 3.9-5.4h-2.3l-3.6 5.5.1-10.9h-1.9v17.9h1.9l-.1-7"></path><path id="path4334" class="st4" d="M205.6 26.9v1.5h1.8v11.1h1.9V28.4h2.3v-1.5h-2.4v-2.1c0-1 .3-2 2.3-1.8v-1.5c-.3 0-.5-.1-.9-.1-1.7 0-3.3.5-3.3 3v2.5h-1.7"></path><path id="path4336" class="st4" d="M219.8 35.3c0 2.1-1.3 2.9-2.3 2.9-1.3 0-2-1-2-2.5V27h-1.9v9.6c0 2.1 1.1 3.2 3.1 3.2 1.2 0 2.3-.6 2.9-1.8h.1v1.5h2c-.1-.9-.1-1.8-.1-2.6v-10h-1.9l.1 8.4"></path><path id="path4338" class="st4" d="M227.2 26.9h-1.9v12.6h1.9v-7.4c0-1.7.5-3.4 2.6-3.4h.5c.2 0 .3 0 .5.1v-2.1c-1.8 0-2.8.2-3.6 2.2v-2"></path><path id="path4340" class="st4" d="M231.2 26.9v1.5h1.9v9c0 1.4.8 2.2 2.6 2.2.6 0 1.2-.1 1.9-.2v-1.6c-.4 0-.7.1-.8.1-1.7 0-1.7-1-1.7-1.8v-7.7h2.5v-1.5h-2.5v-3.4l-1.9.9v2.4l-2 .1"></path><path id="path4342" class="st4" d="M245.9 21.6h2.1v17.9h-2.1V21.6z"></path><path id="path4344" class="st4" d="M260 39.5v-8.7c0-2.5-.6-4.1-3.1-4.1-1.5 0-2.4.4-3.1 1.9h-.1V27h-2c.1.9.1 1.7.1 2.6v10h1.9v-7.5c0-1.7.3-3.7 2.4-3.7 1.6 0 2 1.1 2 2.4v8.7h1.9"></path><path id="path4346" class="st4" d="M271 35.9c0-3.8-5.8-3.8-5.8-6 0-1.1.8-1.7 1.8-1.7 1.2 0 1.8.7 1.8 2h2.1c.2-2.5-1.6-3.6-3.7-3.6-3.3 0-4 2.1-4 3.5 0 3.8 5.8 3.8 5.8 6.1 0 1.3-.9 1.9-2 1.9-1.9 0-1.9-1.7-1.9-2.4H263c-.1 2.9 1.5 4.1 4 4.1 2.2 0 4-1.1 4-3.9"></path><path id="path4348" class="st4" d="M272.2 26.9v1.5h1.9v9c0 1.4.8 2.2 2.6 2.2.6 0 1.2-.1 1.9-.2v-1.6c-.4 0-.7.1-.9.1-1.7 0-1.7-1-1.7-1.8v-7.7h2.5v-1.5H276v-3.4l-1.9.9v2.4l-1.9.1"></path><path id="path4350" class="st4" d="M282.3 26.9h-1.9v12.6h1.9V26.9zm-2-3.1h2.1v-2.2h-2.1v2.2"></path><path id="path4352" class="st4" d="M284 26.9v1.5h1.9v9c0 1.4.8 2.2 2.6 2.2.6 0 1.2-.1 1.9-.2v-1.6c-.4 0-.7.1-.9.1-1.7 0-1.7-1-1.7-1.8v-7.7h2.5v-1.5h-2.5v-3.4l-1.9.9v2.4l-1.9.1"></path><path id="path4354" class="st4" d="M298.3 35.3c0 2.1-1.3 2.9-2.3 2.9-1.3 0-2-1-2-2.5V27h-1.9v9.6c0 2.1 1.1 3.2 3.1 3.2 1.2 0 2.3-.6 2.9-1.8h.1v1.5h2c-.1-.9-.1-1.8-.1-2.6v-10h-1.9l.1 8.4"></path><path id="path4356" class="st4" d="M302.1 26.9v1.5h1.9v9c0 1.4.8 2.2 2.6 2.2.6 0 1.2-.1 1.9-.2v-1.6c-.4 0-.7.1-.9.1-1.7 0-1.7-1-1.7-1.8v-7.7h2.5v-1.5h-2.5v-3.4l-1.9.9v2.4l-1.9.1"></path><path id="path4358" class="st4" d="M312.1 32.3c0-3.5 1-4.1 2.2-4.1 1.4 0 2.3.5 2.3 4.1h-4.5zm6.5 1.6v-1.1c0-4.2-.8-6.1-4.1-6.1-4 0-4.4 3.1-4.4 6.7 0 5.6 2 6.4 4.4 6.4 2.4 0 4-1.3 4-4.1h-2.1c-.1 1.3-.7 2.4-2 2.4-1.5 0-2.3-.7-2.3-4.2h6.5"></path><path class="st4" d="M355.9 17.7c-.5 0-1.1 0-1.9.1-1.7.2-3 .5-4 .9l-.5.2-.4-.2c-1.4-.9-3.4-.7-5.8.5-1.4.7-1.9 1.3-2.2 2.7l-.1.6-.6.3c-1.5.8-2.3 1.5-2.7 2.3-.3.5-.4 1-.4 1.6 0 .5-.1.8-.6 1.1-.2.2-.5.4-.6.6-.2.3-.2.3-.2 1.1 0 .6.1 1.1.2 1.8.3 1.6.3 1.5-.1 2.1-.5.6-.7 1-.7 1.6 0 .6.2 1.3.5 2.2l.3.6-.3.5c-.6 1.1-.8 2.5-.7 3.6.3 1.4 1.1 2.3 2.4 2.5 1 .1 1.7-.1 2.9-.8.3-.2.5-.3.5-.3.1.1.8 1.1.8 1.2 0 0-.5.5-1.2.9-1.3 1-2.4 2-2.7 2.6-.1.2-.2.4-.2.7 0 .5.2 1 1.3 2.8.8 1.3 1.3 2.3 1.3 2.5 0 .1-2 1.1-5.1 2.5-4.2 1.8-5.5 2.6-6.8 3.9-1.2 1.2-1.9 2.8-1.9 4.3v.3H379c-.1-.9-.1-1.4-.4-2.1-.3-1-1-2.1-1.7-2.8-1.2-1.1-3.4-2.3-8.4-4.5-2.7-1.2-3.1-1.4-3.1-1.5 0-.1.9-2.2 1.8-4.2.3-.5.5-1.2.6-1.5.2-.5.2-1.1 0-1.5-.3-.6-1.2-1.3-3.1-2.3-.7-.4-1.2-.6-1.2-.6-.1 0 .6-1.2.8-1.3 0 0 .5.1.9.2 1 .3 1.7.4 2.3.3.6-.2 1.5-1 1.9-1.8.5-1 .5-3 0-4.2-.2-.4-.7-.9-1.2-1.3-.3-.2-.3-.4.1-1.5.4-1.2.4-1.4.3-2.4-.3-3-.9-4.7-2-5.3-.2-.1-.3-.2-.3-.2s.1-.3.1-.6c.3-1 .1-2-.4-3.1s-1.4-2.1-2.4-2.5c-.6-.3-.6-.3-1.2-.3-.5 0-.7 0-.9.2-.2.1-.3.1-.4.1 0 0-.1-.2-.3-.4-.1-.2-.3-.5-.5-.6-.3-.2-.3-.2-.8-.2-.4 0-.6 0-.9.2-.3.1-.4.2-.5.1-.1-.2-.8-1.1-1.2-1.3.2-.3-.3-.4-1-.4z"></path><path class="st4" d="M346.9 20.7c.5 0 1 .2 1.7.7.4.3 1.2.5 1.7.5.1 0 .6-.1.9-.1.8-.2 1-.1 1.8.4.9.6 1 .8 1 1.7 0 .4-.1.5-.2.6-.1.1-.2.2-.3.2-.1 0-.6-.9-.6-1.1 0-.1-.8-.6-1.3-.9-1.1-.5-2-.6-2-.1 0 .2.2.4.8.7.6.4.8.6.5.8-.2.2-.4.1-1.1-.3-.6-.4-1-.5-1.8-.7-.9-.2-1.4-.1-2.1.4-.5.4-1.3 1.3-1.3 1.7-.1.2-.1.3-.2.3h-.7c-.5 0-.6 0-.8.2-.4.3-.6.7-.6 1.3-.1.6-.2.9-.6 1.1-.3.2-.4.2-.6 0-.4-.2-.3-.6.1-1.4.8-1.2 3-3 4.1-3.2.4-.1 1-.4 1.3-.8.3-.3.2-.4 0-.6l-.2-.2h-.8c-.8 0-.8 0-.9-.1-.1-.2.4-.5 1-.8.4-.1.8-.3 1.2-.3zm13 .6s.1 0 0 0c.3.1.3.3.1.3-.2.1-1.1 1-1.4 1.5-.5.7-.7 1.5-.4 1.8.1.1.2.1.7 0 .7-.2 1.6-.3 2-.3 1 .1 2 1.1 1.8 1.6 0 .1-.1.2-.1.2 0 .1-.1 0-.3-.1-.3-.3-.8-.4-1.3-.4-.4 0-.7.2-1.2.5-.3.2-.4.2-.8.2s-.5 0-.7-.2c-.3-.2-.4-.4-.5-.9-.1-.3-.1-.4-.4-.7-.4-.4-.6-.8-.5-1.3.1-.5.4-1 .7-1.3.5-.3 1.8-.9 2.3-.9z"></path><path class="st4" d="M350.5 25.3c.5 0 .7 0 1.6.4 1.3.4 1.4.4 3 .3.8-.1 1.1-.1 1.3 0 .6.2 1.3.8 1.6 1.4.3.5.3 1 .1 1.9-.1.5-.1.9-.1 1 0 .4.2.9.7 1.6.6.9.8 1.3.8 1.7 0 .4-.2.9-.3 1-.1 0-.2 0-.4-.1-.8-.5-1.8-.6-2.8-.3-.7.2-1.6.7-2.1 1-.5.4-.6.7-.7 1.4-.1.6-.1.9.2 2 .2.7.2.9.2 1.5-.1 2.1-.1 2 0 2.7.1.5.1.6.1.9-.1.5-.7.9-1.2.7-.3-.1-.3-.2-.4-.6-.1-.5-.4-.9-.7-.9-.1 0-.3.2-.6.4l-.4.4s-.1-.1-.1-.2c-.1-.2-.1-.2-.3-.2s-.2.1-.3.2c-.1.3 0 .6.4 1s.6.4 1.2.2c.5-.2.5-.2.6-.1.1.1.2.2.3.4.3.5.5.6.9.4.3-.2.5-.2 1.2-.1.6.1.7.1 1-.3.1-.1.2-.3.3-.4.3-.2.6-.5.7-.8.1-.2.1-.3.1-.5s-.1-.3-.2-.4c-.5-.7-.5-.6-.6-1.5 0-.5-.1-1.1-.2-1.4-.1-.6-.1-.7.2-.7.2 0 .5-.2.5-.3 0-.1-.2-.3-.4-.5-.4-.4-.4-.4-.4-.6 0-.1.2-.3.4-.4.5-.3.5-.3.5.1 0 .5.3.9.7 1.1.8.3 1.6-.3 1.7-1.2 0-.3.1-.3.3-.2.4.2.4.4.2.9-.1.3-.5.7-.7.8-.1 0-.3.1-.6.2-.7.1-.9.3-.4.5.3.1.3.1.1.4-.2.3-.2.4 0 .6.2.2.4.2 1-.1.5-.2.7-.4 1-.8.2-.2.2-.3.2-.7 0-.5.2-1 .4-1.1.2-.1.4.3.5.6.1.6.1 1-.1 1.8-.2.6-.2.9-.3 2 0 .8-.1 1.4-.2 1.6-.2.8-1.4 2.8-2.1 3.5l-.4.4h-.4c-.5 0-.6-.1-.6-.6 0-.4-.2-.8-.5-.8-.1 0-.3.1-.6.2-.2.1-.5.2-.5.2-.1 0-.3-.1-.5-.3-.7-.5-1-.4-1.5.1s-.6.5-1.1 0c-.6-.6-.8-.6-1.4-.1-.4.3-.6.3-1 .1-.4-.2-.6-.2-.8.2-.2.4-.2.6 0 .7.2.1.2.1.5-.1.2-.1.3-.2.3-.2s.2.1.4.3c.2.2.5.3.5.3.1 0 .4-.1.7-.2.5-.2.5-.2.8-.1.5.2.7.1 1.3-.1.6-.2.8-.2 1.2-.1.4.2.5.4.4.7s-.4.6-.8.7c-.2.1-.4 0-1.1-.1-.7-.2-.9-.2-1.3-.1-1 .1-1.3.6-.6.9.3.2.6.2 1.3 0 .5-.1.7-.1 1 0 .9.1 1.3.5 1.3 1.2 0 .5-.2.9-.6 1.2-.5.4-.8.4-2.3.4h-1.4l-.5-.2c-.8-.4-2-1.3-3.5-2.7-1-1-1.1-.9-.5.3.5 1.1 1.1 1.9 1.8 2.6 1.5 1.5 2.8 2.1 4.5 2.2.4 0 .8.1.8.1.2.2.1.6-.6 1.6-.4.6-1.5 1.8-2 2.1-.5.3-.7.3-1.6-.4-1.9-1.3-3.2-2.8-4.2-5.1-.4-.9-.5-1.3-.1-2.6.1-.5.4-1.3.5-1.7l.3-.8-.3-.7c-.6-1.2-1-2.7-.9-3.5 0-.8-.1-.9-.5-.3-.3.4-.4.4-.7.3-.4-.2-.5-.4-.6-1-.2-1-.1-1.4.4-1.7.2-.1.4-.3.5-.4.2-.3.2-.4.1-3.6v-2.5c0-.2.3-.7.5-1.3.6-1.2.6-1.5.6-2-.1-.5.1-1.6.2-2.1.5-1.5 1.6-2.6 3-2.9.6-.5 2.4-.7 3.1-.7zm10.5 2c.2 0 .3 0 .9.2.6.2.7.2 1.1.6.4.4.8 1.1 1 1.9.1.5.2.6.2 1 0 .2 0 .2-.2.2-.4 0-.9-.5-1.4-1.6-.5-.9-.7-1.2-1.3-1.7-.3-.3-.5-.5-.5-.6h.2c-.1 0 0 0 0 0zm2.8 5.8c.4 0 .9.3 1.1.8.2.4.2.6-.3.8-.7.2-1.2.9-1.2 1.6 0 .5.1.8.5 1.2.8.8 1.9.8 2.6-.1.5-.7.7-.7 1.1-.1.2.3.2.5.3.8 0 .4 0 .4-.2.6-.2.1-.5.3-.7.4-.6.2-1.1.2-1.5.1-.5-.1-1.2-.5-1.6-.9-.9-.8-1.6-2.4-1.4-3.1.2-.8.7-1.7 1.1-2-.1 0 .1-.1.2-.1z"></path><path class="st4" d="M347.7 33.8c-1.2 0-2.4.4-3 1.1-.4.5-.6 1-.7 1.7v.5l.3.3c.3.2.3.3.6.2h.3l.2.4c.3.6.5.7.9.8.3 0 .3 0 .5-.1.2-.2.2-.4.1-.4-.3 0-.8-.7-.7-1 .1-.3.4-.6.6-.6.1 0 .2 0 .1.5 0 .4 0 .4.2.7.3.3.9.6 1.2.5.3-.1.8-.5.9-.8.1-.2.1-.3.1-.6-.1-.4 0-.5.3-.4.1.1.3.2.3.3.1.2.1.2 0 .4-.1.1-.2.4-.3.6-.3.4-.2.5.2.5.2 0 .3-.1.6-.3.5-.4.6-.4.5.1 0 .3-.1.5-.3.8-.3.4-.3.5-.2.8 0 .3.4 1.1.7 1.4.2.3.4.3.5 0 .1-.3.1-.7-.1-1.6l-.1-.9.2-1c.2-.9.2-1 .1-1.4-.1-.6-.2-.7-.6-1.1-.7-.7-1.7-1.2-2.3-1.4h-1.1z"></path><path class="st4" d="M347.2 34.5c.3 0 .5 0 .7.1.8.3 1.2.7 1.2 1.1 0 .2 0 .3-.3 0-.2-.1-.3-.2-.5-.2h-.2v.6h-.3c-.2 0-.5 0-.7.1s-.4.1-.4.1v-.2c0-.2 0-.2-.2-.2s-.3.1-.6.4c-.4.4-.6.5-.9.2-.2-.2-.1-.4.1-.8.3-.6.8-1 1.5-1.1.2-.1.4-.1.6-.1zm10.4.4c.1 0 .2 0 .4.1.5.1.8.3 1.1.6.2.2.2.3.2.5s-.1.3-.1.3-.2-.1-.4-.3c-.2-.2-.4-.4-.5-.4s-.1 0-.1.2c0 .3 0 .3-.5.1-.5-.2-.7-.1-1.3.1-.6.2-.7.2-.7 0 0-.3.1-.4.5-.5.3-.1.4-.2.4-.3 0-.2.1-.3.6-.4h.4zm-9.6 1.6h.2c.2.1.2.4 0 .6-.3.4-.7 0-.6-.5.1 0 .2-.1.4-.1zm9.2 0c.1 0 .2.1.3.2s.1.2 0 .3c0 .1-.1.2-.2.2-.1.1-.2 0-.3-.1-.2-.2-.2-.4 0-.6.1.1.2 0 .2 0zm-19.4 2.6c.2 0 .2.1.3.5 0 .3.1.4.2.5.3.3.8.2 1.3-.4l.3-.3.3.1c.2.1.3.1.3.2s-.3.5-.6.9c-.4.6-.7.8-.9.9-.6.3-1 .3-1.4-.1-.3-.3-.4-.6-.3-1.1 0-.2.1-.6.2-.8 0-.4.1-.4.3-.4zm16.8 3.3l.2.1c.3.1.4.3.5.6 0 .2-.1.6-.2.7-.1 0-.2.1-.3.1-.2 0-.2 0-.2-.1s0-.2.1-.4.1-.3.1-.6l-.2-.4zm6.6 6.5c.2.1.2.4.5 1.9.2 1.4.2 1.8.1 2.3-.3.9-1.2 2.3-1.9 3.1-.3.3-1.5 1.1-2.3 1.5-.8.4-1.2.4-1.6.2-.4-.3-.8-.6-1.1-1-.4-.5-1.2-2.2-1.2-2.4 0-.2.2-.2 1.2-.5 1.3-.3 3.4-1.5 4.5-2.6.7-.7 1-1.2 1.3-1.9.3-.4.4-.6.5-.6zm-16.4 5.5c.1 0 .4.4.8 1 1.2 1.6 2 2.4 3.2 3 .6.3.8.6 1.3 1.5.3.6.4.9.2 1-.3.3-.7.2-1.7-.3-1.6-.8-2.8-2.4-3.7-5.1-.3-.8-.3-1.1-.1-1.1zm-3 .5c.1 0 .5.4.8.9.2.3.5.8.7 1.1.2.4.8 1.1 1.2 1.7.4.6 1 1.4 1.3 1.8.4.5.6.8.6 1 0 .2 0 .2-.2.2-.5 0-.6-.1-1.6-1.6-1.2-1.8-2.2-3.4-2.6-4.2-.3-.5-.3-.7-.2-.9-.2.1-.1 0 0 0zm19.9.5c.1 0 .1 0 0 0 .2.1.2.1.1.7 0 .4-.1.8-.2 1.1-.4 1.2-1.9 3.4-2.9 4-.6.4-1 .4-1.5-.1-.3-.3-.5-.7-.5-.9 0-.2.2-.3.8-.5.3-.1.8-.3 1-.4 1-.6 2.4-2.3 2.8-3.3.2-.5.3-.6.4-.6zm-8.1.9c.2 0 .4.3.5.9.1.7-.3 1.7-.7 1.9-.1.1-.2.1-.5 0-.4-.1-.6 0-1 .4s-.4.5.1.8c.3.1.4.2 1 .2h.7l.2-.2c.1-.1.2-.4.3-.6.2-.6.3-.8.6-.9.3-.1.3-.1.7.6.3.5.3.7-.1 1-.4.4-1.2.8-2.3 1-.6.1-.5.1-.8 0-.7-.2-1.4-1.5-1.4-2.6 0-.8.4-1.1 1.3-.8.6.2.9.2 1.1-.2.1-.2.1-.3.1-.8 0-.4 0-.6.2-.7-.2.1-.1 0 0 0z"></path><path id="path2572" d="M345.6 61.6c-.2-.1-.4-.4-1.2-1.5-1.2-1.8-2.2-3.4-2.6-4.2-.3-.5-.3-.7-.3-.8s.1-.1.2-.1.5.4.8.9c.2.3.5.8.7 1.1.2.4.8 1.1 1.2 1.7.4.6 1 1.4 1.3 1.8.4.5.6.8.6 1 0 .2 0 .2-.2.2-.1 0-.3 0-.5-.1zm6.7 0c-.7-.2-1.4-1.5-1.4-2.6 0-.8.4-1.1 1.3-.8.6.2.9.2 1.1-.2.1-.2.1-.3.1-.8 0-.4 0-.6.1-.8.2-.4.6-.1.7.7.1.7-.3 1.7-.7 1.9-.1.1-.2.1-.5 0-.4-.1-.6 0-1 .4s-.4.5.1.8c.3.1.4.2 1 .2h.7l.2-.2c.1-.1.2-.4.3-.6.2-.6.3-.8.6-.9.3-.1.3-.1.7.6.3.5.3.7-.1 1-.4.4-1.2.8-2.3 1-.6.4-.6.4-.9.3zm5.5-.1c-.5-.2-1-.9-1-1.2 0-.2.2-.3.8-.5.3-.1.8-.3 1-.4 1-.6 2.4-2.3 2.8-3.3.2-.5.3-.6.4-.6s.1.1.1.7c0 .4-.1.8-.2 1.1-.4 1.2-1.9 3.4-2.9 4-.4.3-.7.4-1 .2zm-8.3-.4c-2.1-.8-3.5-2.4-4.5-5.5-.3-.9-.3-1.1-.1-1.1.1 0 .4.4.8 1 1.2 1.6 2 2.4 3.2 3 .4.2.6.4.8.6.3.5.8 1.4.8 1.6 0 .4-.4.6-1 .4zm.1-3.2c-.3-.1-1.2-.8-1.9-1.3-1.2-1-2.3-2.5-3.1-4.2-.4-.9-.5-1.3-.1-2.6.1-.5.4-1.3.5-1.7l.3-.8-.3-.7c-.6-1.2-1-2.7-.9-3.5 0-.8-.1-.9-.5-.3-.3.4-.4.4-.7.3-.4-.2-.5-.4-.6-1-.2-1-.1-1.4.4-1.7.2-.1.4-.3.5-.4.2-.3.2-.4.1-3.6v-2.5c0-.2.3-.7.5-1.3.6-1.2.6-1.5.6-2-.1-.5.1-1.6.2-2.1.5-1.5 1.6-2.6 3-2.9.6-.1 2.5-.3 3.1-.3.5 0 .7 0 1.6.4 1.3.4 1.4.4 3 .3.8-.1 1.1-.1 1.3 0 .6.2 1.3.8 1.6 1.4.3.5.3 1 .1 1.9-.1.5-.1.9-.1 1 0 .4.2.9.7 1.6.6.9.8 1.3.8 1.7s-.2.9-.3 1c-.1 0-.2 0-.4-.1-.8-.5-1.8-.6-2.8-.3-.7.2-1.6.7-2.1 1-.5.4-.6.7-.7 1.4-.1.6-.1.9.2 2 .2.7.2.9.2 1.5-.1 2.1-.1 2 0 2.7.1.5.1.6.1.9-.1.5-.7.9-1.2.7-.3-.1-.3-.2-.4-.6-.1-.5-.4-.9-.7-.9-.1 0-.3.2-.6.4l-.4.4s-.1-.1-.1-.2c-.1-.2-.1-.2-.3-.2-.2 0-.2.1-.3.2-.1.3 0 .6.4 1s.6.4 1.2.2c.5-.2.5-.2.6-.1.1.1.2.2.3.4.3.5.5.6.9.4.3-.2.5-.2 1.2-.1.6.1.7.1 1-.3.1-.1.2-.3.3-.4.3-.2.6-.5.7-.8.1-.2.1-.3.1-.5s-.1-.3-.2-.4c-.5-.7-.5-.6-.6-1.5 0-.5-.1-1.1-.2-1.4-.1-.6-.1-.7.2-.7.2 0 .5-.2.5-.3s-.2-.3-.4-.5c-.4-.4-.4-.4-.4-.6 0-.1.2-.3.4-.4.5-.3.5-.3.5.1 0 1 1 1.5 1.8 1 .4-.2.6-.7.6-1.1 0-.3.1-.3.3-.2.4.2.4.4.2.9-.1.3-.5.7-.7.8-.1 0-.3.1-.6.2-.7.1-.9.3-.4.5.3.1.3.1.1.4-.2.3-.2.4 0 .6.2.2.4.2 1-.1.5-.2.7-.4 1-.8.2-.2.2-.3.2-.7 0-.5.2-1 .4-1.1.2-.1.4.3.5.6.1.6.1 1-.1 1.8-.2.6-.2.9-.3 2 0 .8-.1 1.4-.2 1.6-.2.8-1.4 2.8-2.1 3.5l-.4.4h-.4c-.5 0-.6-.1-.6-.6 0-.4-.2-.8-.5-.8-.1 0-.3.1-.6.2-.2.1-.5.2-.5.2-.1 0-.3-.1-.5-.3-.7-.5-1-.4-1.5.1s-.6.5-1.1 0c-.6-.6-.8-.6-1.4-.1-.4.3-.6.3-1 .1-.4-.2-.6-.2-.8.2-.2.4-.2.6 0 .7.2.1.2.1.5-.1.2-.1.3-.2.3-.2s.2.1.4.3c.2.2.5.3.5.3.1 0 .4-.1.7-.2.5-.2.5-.2.8-.1.5.2.7.1 1.3-.1.3-.1.6-.2.7-.2.3 0 .7.2.9.4.2.4-.1.9-.7 1.1-.2.1-.4 0-1.1-.1-.7-.2-.9-.2-1.3-.1-1 .1-1.3.6-.6.9.3.2.6.2 1.3 0 .5-.1.7-.1 1 0 .9.1 1.3.5 1.3 1.2 0 .5-.2.9-.6 1.2-.5.4-.8.4-2.3.4h-1.4l-.5-.2c-.8-.4-2-1.3-3.5-2.7-1-1-1.1-.9-.5.3.5 1.1 1.1 1.9 1.8 2.6 1.5 1.5 2.8 2.1 4.5 2.2.4 0 .8.1.8.1.2.2.1.6-.6 1.6-.4.6-1.5 1.8-2 2.1-.4-.3-.6-.2-.9-.4zm2-16.7c.1-.3.1-.7-.1-1.6l-.1-.9.2-1c.2-.9.2-1 .1-1.4-.1-.6-.2-.7-.6-1.1-.7-.7-1.7-1.2-2.3-1.4-1.5-.3-3.2.1-4 1-.4.5-.6 1-.7 1.7v.5l.3.3c.3.2.3.3.6.2h.3l.2.4c.3.6.5.7.9.8.3 0 .3 0 .5-.1.2-.2.2-.4.1-.4-.3 0-.8-.7-.7-1 .1-.3.4-.6.6-.6.1 0 .2 0 .1.5 0 .4 0 .4.2.7.3.3.9.6 1.2.5.3-.1.8-.5.9-.8.1-.2.1-.3.1-.6-.1-.4 0-.5.3-.4.1.1.3.2.3.3.1.2.1.2 0 .4-.1.1-.2.4-.3.6-.3.4-.2.5.2.5.2 0 .3-.1.6-.3.5-.4.6-.4.5.1 0 .3-.1.5-.3.8-.3.4-.3.5-.2.8.1.5.8 1.7 1 1.7 0 .1.1 0 .1-.2zm-3.8-3.9c-.3-.2-.2-.7.1-.8.3-.1.4.1.4.3.1.5-.2.7-.5.5zm-2.7-.8c-.2-.2-.1-.4.1-.8.3-.6.8-1 1.5-1.1.6-.1.8-.1 1.3.1.8.3 1.2.7 1.2 1.1 0 .2 0 .3-.3 0-.2-.1-.3-.2-.5-.2h-.2v.6h-.3c-.2 0-.5 0-.7.1s-.4.1-.4.1v-.2c0-.2 0-.2-.2-.2s-.3.1-.6.4c-.5.3-.7.3-.9.1zM356 57.8c-.4-.3-.8-.6-1.1-1-.4-.5-1.2-2.2-1.2-2.4 0-.2.2-.2 1.2-.5 1.3-.3 3.4-1.5 4.5-2.6.7-.7 1-1.2 1.3-1.9.2-.5.3-.7.5-.6.1 0 .2.4.4 1.9.2 1.4.2 1.8.1 2.3-.3.9-1.2 2.3-1.9 3.1-.3.3-1.5 1.1-2.3 1.5-.7.4-1.1.5-1.5.2zm-1.5-14c0-.1 0-.2.1-.4s.1-.3.1-.6v-.4l.2.1c.4.2.6.6.4 1-.1.3-.2.4-.5.4-.2.1-.3.1-.3-.1zm-16.6-2.2c-.2-.2-.3-.3-.5-.6-.1-.2-.1-.3-.1-.7 0-.2.1-.6.2-.8.1-.3.2-.4.3-.4.3 0 .3 0 .4.5 0 .3.1.4.2.5.3.3.8.2 1.3-.4l.3-.3.3.1c.2.1.3.1.3.2s-.3.5-.6.9c-.4.6-.7.8-.9.9-.6.2-1 .2-1.2.1zm27.5-2.3c-.5-.1-1.2-.5-1.6-.9-.9-.8-1.6-2.4-1.4-3.1.2-.8.7-1.7 1.1-2s1.2.1 1.5.7c.2.4.2.6-.3.8-.7.2-1.2.9-1.2 1.6 0 .5.1.8.5 1.2.8.8 1.9.8 2.6-.1.5-.7.7-.7 1.1-.1.2.3.2.5.3.8 0 .4 0 .4-.2.6-.8.4-1.8.6-2.4.5zm-8.3-2c-.2-.2-.2-.4 0-.6.1-.2.4-.1.5.1.1.2.1.4-.2.6-.1 0-.2 0-.3-.1zm1.7-1.2c-.2-.2-.4-.4-.5-.4s-.1 0-.1.2c0 .3 0 .3-.5.1-.5-.2-.7-.1-1.3.1-.6.2-.7.2-.7 0 0-.3.1-.4.5-.5.3-.1.4-.2.4-.3 0-.2.1-.3.6-.4.4-.1.5-.1.8 0 .5.1.8.3 1.1.6.2.2.2.3.2.5s-.1.3-.1.3c0 .2-.2 0-.4-.2zm4.9-4.9c-.3-.2-.7-.7-1.1-1.4-.5-.9-.7-1.2-1.3-1.7-.6-.6-.7-.8-.1-.7.1 0 .4.1.8.2.6.2.7.2 1.1.6.7.7 1.2 2 1.2 2.9 0 .2 0 .2-.2.2-.1 0-.3 0-.4-.1zM341 28.1c-.4-.2-.3-.6.1-1.4.8-1.2 3-3 4.1-3.2.4-.1 1-.4 1.3-.8.3-.3.2-.4 0-.6l-.2-.2h-.8c-.8 0-.8 0-.9-.1-.1-.2.4-.5 1-.8 1.2-.6 1.8-.5 3 .3.4.3 1.2.5 1.7.5.1 0 .6-.1.9-.1.8-.2 1-.1 1.8.4.9.6 1 .8 1 1.7 0 .4-.1.5-.2.6-.1.1-.2.2-.3.2-.1 0-.6-.9-.6-1.1 0-.1-.8-.6-1.3-.9-1.1-.5-2-.6-2-.1 0 .2.2.4.8.7.6.4.8.6.5.8-.2.2-.4.1-1.1-.3-.6-.4-1-.5-1.8-.7-.9-.2-1.4-.1-2.1.4-.5.4-1.3 1.3-1.3 1.7-.1.2-.1.3-.2.3h-.7c-.5 0-.6 0-.8.2-.4.3-.6.7-.6 1.3-.1.6-.2.9-.6 1.1-.4.2-.5.2-.7.1zm17.5-1.5c-.3-.2-.4-.4-.5-.9-.1-.3-.1-.4-.4-.7-.4-.4-.6-.8-.5-1.3s.4-1 .7-1.3c.5-.5 2-1.1 2.3-1 .2.1.2.3 0 .3-.2.1-1.1 1-1.4 1.5-.5.7-.7 1.5-.4 1.8.1.1.2.1.7 0 .7-.2 1.6-.3 2-.3 1 .1 2 1.1 1.8 1.6 0 .1-.1.2-.1.2 0 .1-.1 0-.3-.1-.3-.3-.8-.4-1.3-.4-.4 0-.7.2-1.2.5-.3.2-.4.2-.8.2-.3 0-.4 0-.6-.1z" fill="#fff"></path></svg>