<svg xmlns="http://www.w3.org/2000/svg" xmlns:xlink="http://www.w3.org/1999/xlink" width="380" height="90" viewBox="0 0 380 90"><defs><circle id="a" cx="44.4" cy="45" r="43.4"/></defs><clipPath id="b"><use xlink:href="#a" overflow="visible"/></clipPath><g clip-path="url(#b)" fill="none" stroke-width="1.772"><g stroke="#006595"><path d="M75.3 42.1c-.9.9-2 1.7-3.1 2.5-9.2 6.5-21.1 6.2-29.9.2"/><path d="M78.5 44.6c-1.2 1.2-2.5 2.3-3.9 3.3-10.9 7.5-24.9 7.1-35.1-.1m-.6-5.9c-1.2-1.1-2.3-2.4-3.3-3.8-8.3-11.9-5.4-28.3 6.6-36.6C54-6.8 70.4-3.9 78.7 7.9c6.7 9.6 6.2 21.9-.5 30.8"/><path d="M36.3 45c-1.5-1.4-2.8-3-4.1-4.7C22.5 26.6 25.9 7.6 39.7-2S72.4-8.3 82 5.4c7.8 11.2 7.1 25.7-.8 36"/><path d="M31.1 21.3c5.6 1.6 10.6 5.1 14.1 10.2s5.1 11 4.7 16.7m-.6 4.3c-1.4 6.1-5 11.8-10.6 15.5-11.9 8.4-28.3 5.5-36.7-6.5-8.4-11.9-5.5-28.3 6.5-36.7 5.5-3.8 11.9-5.3 17.9-4.6"/><path d="M53.2 53.5c-1.7 7-5.8 13.5-12.2 17.8C27.3 81 8.3 77.6-1.3 63.8-11 50.1-7.7 31.1 6.1 21.4c6.5-4.5 14-6.2 21.3-5.3m4.3.9c6.6 1.8 12.6 5.9 16.8 11.9 4.3 6.2 6.1 13.5 5.4 20.4"/><path d="M31.2 71.7c-3.5-12.2.9-25.6 11.8-33.3 1.5-1 3-1.9 4.5-2.6m3.9-1.5c12.3-3.8 26.1.5 33.9 11.7 9.7 13.7 6.3 32.8-7.5 42.3C64.1 98 45 94.6 35.5 80.9c-1.2-1.8-2.3-3.6-3.1-5.5"/><path d="M35.1 70.3c-2.8-10.4 1-21.8 10.3-28.3 1.1-.8 2.2-1.4 3.4-2m4-1.6c10.6-3.3 22.5.5 29.3 10.1 8.4 11.9 5.5 28.3-6.5 36.7-11.9 8.4-28.3 5.5-36.7-6.5-1-1.4-1.9-3-2.5-4.5"/></g><g stroke="#fff"><path d="M29.8 20c5.6 1.6 10.6 5.1 14.1 10.2s5.1 11 4.7 16.7"/><path d="M30.5 15.8c6.6 1.8 12.6 5.9 16.8 11.9 4.3 6.2 6.1 13.5 5.4 20.4"/><path d="M37.7 40.7c-1.2-1.1-2.3-2.4-3.3-3.8C26.1 25 29 8.6 40.9.3s28.3-5.5 36.7 6.5c6.7 9.6 6.2 21.9-.5 30.8m.1 5.7c-1.2 1.2-2.5 2.3-3.9 3.3-10.9 7.6-24.8 7.2-35.1-.1"/><path d="M33.9 69.1c-2.8-10.4 1-21.8 10.3-28.3 1.1-.8 2.2-1.4 3.4-2"/><path d="M74 40.9c-.9.9-2 1.7-3.1 2.5-9.2 6.5-21.1 6.2-29.9.2m-6 .2c-1.5-1.4-2.8-3-4.1-4.7-9.7-13.7-6.3-32.8 7.5-42.3 13.7-9.7 32.8-6.3 42.3 7.5 7.8 11.2 7.1 25.7-.8 36"/><path d="M48 51.3c-1.4 6.1-5 11.8-10.6 15.5C25.5 75.2 9.1 72.3.8 60.3-7.5 48.5-4.6 32 7.4 23.7c5.5-3.8 11.9-5.3 17.9-4.6"/><path d="M51.9 52.2c-1.7 7-5.8 13.5-12.2 17.8C26 79.7 7 76.3-2.6 62.5c-9.7-13.7-6.3-32.8 7.5-42.3 6.5-4.5 14-6.2 21.3-5.3"/><path d="M29.9 70.4c-3.4-12.1.9-25.5 11.9-33.2 1.5-1 3-1.9 4.5-2.6m3.9-1.6c12.3-3.8 26.1.5 33.9 11.7 9.7 13.7 6.3 32.8-7.5 42.3-13.7 9.7-32.8 6.3-42.3-7.5-1.2-1.8-2.3-3.6-3.1-5.5"/><path d="M51.5 37.2c10.6-3.3 22.5.5 29.3 10.1 8.4 11.9 5.5 28.3-6.5 36.7-11.9 8.4-28.3 5.5-36.7-6.5-1-1.4-1.9-3-2.5-4.5"/></g></g><circle cx="44.4" cy="45" r="43.4" fill="none" stroke="#fff" stroke-miterlimit="10"/><circle cx="44.4" cy="45" r="43.4" fill="none"/><path d="M104.1 52.4v1.5h1.8V65h1.9V53.9h2.3v-1.5h-2.3v-2.1c0-1 .3-1.9 2.3-1.8V47c-.3 0-.5-.1-.9-.1-1.7 0-3.3.5-3.3 3v2.5h-1.8m12.7 11.1c-2 0-2.4-1.5-2.4-5.6 0-3.5 1-4.2 2.4-4.2 1.5 0 2.4.8 2.4 4.2 0 4.1-.4 5.6-2.4 5.6zm0 1.6c2.5 0 4.4-.8 4.4-6.4 0-3.7-.4-6.7-4.4-6.7s-4.4 3-4.4 6.7c0 5.6 2 6.4 4.4 6.4m10-12.7h-1.9V65h1.9v-7.4c0-1.7.5-3.4 2.6-3.4.2 0 .3 0 .5.1.2 0 .3 0 .5.1v-2.1c-1.8 0-2.8.2-3.6 2.1v-2m13.3 12.5h2.1l1.2-4.3h6.4l1.2 4.3h2.4L148 47h-2.7l-5.2 17.9zm9.2-6.3H144l2.6-9.6h.1l2.6 9.6m12.9-.4c0 2.5 0 5.4-2.1 5.4-2.4 0-2.4-2.7-2.4-4.6 0-3.4.3-5.1 2.3-5.1 2.1-.1 2.2 2.6 2.2 4.3zm0-4.6c-.7-1-1.5-1.5-2.6-1.5-3.7 0-3.8 3.6-3.8 6.8 0 5.5 1.9 6.3 3.7 6.3 1.2 0 2-.6 2.7-1.7V65h1.9V47h-1.9v6.6m8.3 11.3h2.5l3.6-12.6h-2L171.8 63l-2.7-10.7H167l3.5 12.6m14.7-6.3c.2 4.1-1.2 4.8-2.4 4.8-1.3 0-1.8-1.1-1.8-2.3 0-2.6 2.4-2.5 4.2-2.5zm0 6.3h2.1c-.1-1-.2-2-.2-3v-6.1c0-2.1-.8-3.8-3.8-3.8-2.5 0-3.8 1-3.9 3.8h2c-.1-1.3.6-2.3 1.8-2.3 2 0 2 1.8 2 3.5-2.6-.1-6.1.1-6.1 3.9 0 2.4.7 4.1 3.2 4.1 1.5 0 2.3-.6 2.9-2.1v2m14.5 0v-8.7c0-2.5-.6-4.1-3.1-4.1-1.5 0-2.4.4-3.1 1.9h-.1v-1.7h-2c.1.9.1 1.7.1 2.6v10h1.9v-7.5c0-1.7.3-3.7 2.4-3.7 1.6 0 2 1.1 2 2.4v8.7l1.9.1m12-8.5c.1-2.8-1.2-4.3-3.6-4.3-4 0-4.4 3-4.4 6.7 0 5.6 2 6.4 4.4 6.4 1.3 0 3.7-.9 3.7-4.4h-2c.1 2.3-1.2 2.8-1.7 2.8-2 0-2.4-1.5-2.4-5.6 0-3.5 1-4.2 2.4-4.2.7 0 1.7.5 1.6 2.6h2m6.1 1.4c0-3.5 1-4.1 2.2-4.1 1.4 0 2.3.5 2.3 4.1h-4.5zm6.5 1.4v-1.1c0-4.2-.8-6.1-4.1-6.1-4 0-4.4 3.1-4.4 6.7 0 5.6 2 6.4 4.4 6.4s4-1.3 4-4.1h-2.1c-.1 1.3-.7 2.4-2 2.4-1.5 0-2.3-.7-2.3-4.2h6.5m9.9-1c0 2.5 0 5.4-2.1 5.4-2.4 0-2.4-2.7-2.4-4.6 0-3.4.3-5.1 2.3-5.1 2.2-.1 2.2 2.6 2.2 4.3zm0-4.6c-.7-1-1.5-1.5-2.6-1.5-3.7 0-3.8 3.6-3.8 6.8 0 5.5 1.9 6.3 3.7 6.3 1.2 0 2-.6 2.7-1.7V65h1.9V47h-1.9v6.6m14 5.9c0 1.7 0 5.8 4.8 5.7 2.7 0 5.2-1.2 5.2-5 0-5.7-7.4-5.1-7.4-9.1 0-1.9 1.3-2.7 2.5-2.7 2 0 2.6 1.3 2.6 3.3h2.2c.1-3.7-1.6-5.3-4.6-5.3-2.8 0-4.9 1.7-4.9 4.9 0 5.4 7.4 5 7.4 9 0 2.1-1.3 2.9-3 2.9-1.4 0-2.8-.8-2.8-3.2v-.5h-2m12-7.1v1.5h1.9v9c0 1.5.8 2.3 2.6 2.3.6 0 1.2-.2 1.9-.2v-1.6c-.4 0-.7.1-.9.1-1.7 0-1.7-1-1.7-1.8V54h2.5v-1.6H264v-3.3l-1.9.9v2.4h-1.9m15.1 8.2c0 2.1-1.3 2.9-2.3 2.9-1.3 0-2-1-2-2.5v-8.7h-1.9v9.6c0 2.1 1.1 3.3 3.1 3.3 1.2 0 2.3-.6 2.9-1.8h.1v1.5h2c-.1-.9-.1-1.7-.1-2.6v-10h-1.9l.1 8.3m12.1-2.4c0 2.5 0 5.4-2.1 5.4-2.4 0-2.4-2.7-2.4-4.6 0-3.4.3-5.1 2.3-5.1 2.1-.1 2.2 2.6 2.2 4.3zm0-4.6c-.7-1-1.5-1.5-2.6-1.5-3.7 0-3.8 3.6-3.8 6.8 0 5.5 1.9 6.3 3.7 6.3 1.2 0 2-.6 2.7-1.7V65h1.9V47h-1.9v6.6m7.9-1.2h-1.9V65h1.9V52.4zm-2-3.3h2.1v-2.2h-2.1v2.2m7.9 8.7c0-3.5 1-4.1 2.2-4.1 1.4 0 2.3.5 2.3 4.1h-4.5zm6.5 1.4v-1.1c0-4.2-.8-6.1-4.1-6.1-4 0-4.4 3.1-4.4 6.7 0 5.6 2 6.4 4.4 6.4 2.4 0 4-1.3 4-4.1h-2.1c-.1 1.3-.7 2.4-2 2.4-1.5 0-2.3-.7-2.3-4.2h6.5m11.3 2.1c0-3.8-5.8-3.8-5.8-6 0-1.1.8-1.7 1.8-1.7 1.2 0 1.8.7 1.8 2h2.1c.2-2.5-1.6-3.6-3.7-3.6-3.3 0-4 2.1-4 3.4 0 3.8 5.8 3.8 5.8 6.1 0 1.3-.9 1.9-2 1.9-1.9 0-1.9-1.7-1.9-2.4H311c-.1 2.9 1.5 4.1 4 4.1 2.3 0 4-1 4-3.8M108.8 39.5v-7.9h4.9v-2.8h-4.9v-4.6h5.1v-2.8h-8.6v17.9l3.5.2m6.9-17.9h3.5v17.9h-3.5V21.6zm8.6 17.9l.9-4h4.7l.9 4h3.7L130 21.6h-4.5L121 39.5h3.3zm5-6.8H126l1.6-7.8 1.7 7.8m17.4 1.9c0-5.7-7-5.4-7-8.8 0-1.2.7-1.9 1.8-1.9 1.4 0 1.6 1.4 1.6 2.7h3.4c.2-3.8-1.5-5.4-4.8-5.4-4.2 0-5.5 2.2-5.5 5.1 0 5.4 7 5.6 7 8.8 0 1.2-.6 2-1.7 2-1.9 0-2-1.4-2-3.2H136c-.2 3.1.6 5.9 4.9 5.9 2.6 0 5.8-.5 5.8-5.2m10.8 4.9v-8.2h5.8v-2h-5.8v-5.8h6.1v-2h-8.2v17.9h2.1M167.7 27h-1.9v12.6h1.9v-7.4c0-1.7.5-3.4 2.6-3.4h.5c.2 0 .3 0 .5.1v-2.1c-1.8 0-2.8.2-3.6 2.2v-2m11.6 6.2c.2 4.1-1.2 4.8-2.4 4.8-1.3 0-1.8-1.1-1.8-2.3.1-2.6 2.5-2.4 4.2-2.5zm.1 6.3h2.1c-.1-1-.2-2-.2-3v-6.1c0-2.1-.8-3.8-3.8-3.8-2.5 0-3.8 1-3.9 3.8h2c-.1-1.3.6-2.2 1.8-2.2 2 0 2 1.8 2 3.5-2.6-.1-6.1.1-6.1 3.9 0 2.4.7 4.1 3.2 4.1 1.5 0 2.3-.6 2.9-2.1v1.9m13.9 0v-8.7c0-2.5-.6-4.1-3.1-4.1-1.5 0-2.4.4-3.1 1.9h-.1V27h-2c.1.9.1 1.7.1 2.6v10h1.9v-7.5c0-1.7.3-3.7 2.4-3.7 1.6 0 2 1.1 2 2.4v8.7h1.9m5.3-7.1l4.2 7.1h2.4l-4.6-7.2 3.9-5.4h-2.3l-3.6 5.5.1-10.9h-1.9v17.9h1.9l-.1-7m7-5.4v1.5h1.8v11.1h1.9V28.5h2.3V27h-2.4v-2.1c0-1 .3-2 2.3-1.8v-1.5c-.3 0-.5-.1-.9-.1-1.7 0-3.3.5-3.3 3V27h-1.7m14.2 8.3c0 2.1-1.3 2.9-2.3 2.9-1.3 0-2-1-2-2.5V27h-1.9v9.6c0 2.1 1.1 3.2 3.1 3.2 1.2 0 2.3-.6 2.9-1.8h.1v1.5h2c-.1-.9-.1-1.8-.1-2.6V27h-1.9l.1 8.3m7.4-8.3h-1.9v12.6h1.9v-7.4c0-1.7.5-3.4 2.6-3.4h.5c.2 0 .3 0 .5.1v-2.1c-1.8 0-2.8.2-3.6 2.2v-2m4 0v1.5h1.9v9c0 1.4.8 2.2 2.6 2.2.6 0 1.2-.1 1.9-.2v-1.6c-.4 0-.7.1-.8.1-1.7 0-1.7-1-1.7-1.8v-7.7h2.5V27h-2.5v-3.4l-1.9.9v2.4l-2 .1m14.7-5.4h2.1v17.9h-2.1V21.6zM260 39.5v-8.7c0-2.5-.6-4.1-3.1-4.1-1.5 0-2.4.4-3.1 1.9h-.1V27h-2c.1.9.1 1.7.1 2.6v10h1.9v-7.5c0-1.7.3-3.7 2.4-3.7 1.6 0 2 1.1 2 2.4v8.7h1.9m11-3.6c0-3.8-5.8-3.8-5.8-6 0-1.1.8-1.7 1.8-1.7 1.2 0 1.8.7 1.8 2h2.1c.2-2.5-1.6-3.6-3.7-3.6-3.3 0-4 2.1-4 3.5 0 3.8 5.8 3.8 5.8 6.1 0 1.3-.9 1.9-2 1.9-1.9 0-1.9-1.7-1.9-2.4H263c-.1 2.9 1.5 4.1 4 4.1 2.2 0 4-1.1 4-3.9m1.2-8.9v1.5h1.9v9c0 1.4.8 2.2 2.6 2.2.6 0 1.2-.1 1.9-.2v-1.6c-.4 0-.7.1-.9.1-1.7 0-1.7-1-1.7-1.8v-7.7h2.5V27H276v-3.4l-1.9.9v2.4l-1.9.1m10.1 0h-1.9v12.6h1.9V27zm-2-3.2h2.1v-2.2h-2.1v2.2M284 27v1.5h1.9v9c0 1.4.8 2.2 2.6 2.2.6 0 1.2-.1 1.9-.2v-1.6c-.4 0-.7.1-.9.1-1.7 0-1.7-1-1.7-1.8v-7.7h2.5V27h-2.5v-3.4l-1.9.9v2.4l-1.9.1m14.3 8.3c0 2.1-1.3 2.9-2.3 2.9-1.3 0-2-1-2-2.5V27h-1.9v9.6c0 2.1 1.1 3.2 3.1 3.2 1.2 0 2.3-.6 2.9-1.8h.1v1.5h2c-.1-.9-.1-1.8-.1-2.6V27h-1.9l.1 8.3m3.8-8.3v1.5h1.9v9c0 1.4.8 2.2 2.6 2.2.6 0 1.2-.1 1.9-.2v-1.6c-.4 0-.7.1-.9.1-1.7 0-1.7-1-1.7-1.8v-7.7h2.5V27h-2.5v-3.4l-1.9.9v2.4l-1.9.1m10 5.3c0-3.5 1-4.1 2.2-4.1 1.4 0 2.3.5 2.3 4.1h-4.5zm6.5 1.6v-1.1c0-4.2-.8-6.1-4.1-6.1-4 0-4.4 3.1-4.4 6.7 0 5.6 2 6.4 4.4 6.4 2.4 0 4-1.3 4-4.1h-2.1c-.1 1.3-.7 2.4-2 2.4-1.5 0-2.3-.7-2.3-4.2h6.5m19.2 5.2c.2 0 .2.1.3.5 0 .3.1.4.2.5.3.3.8.2 1.3-.4l.3-.3.3.1c.2.1.3.1.3.2s-.3.5-.6.9c-.4.6-.7.8-.9.9-.6.3-1 .3-1.4-.1-.3-.3-.4-.6-.3-1.1 0-.2.1-.6.2-.8 0-.4.1-.4.3-.4z" fill="#fff"/><path d="M355.9 17.7c-.5 0-1.1 0-1.9.1-1.7.2-3 .5-4 .9l-.5.2-.4-.2c-1.4-.9-3.4-.7-5.8.5-1.4.7-1.9 1.3-2.2 2.7l-.1.6-.6.3c-1.5.8-2.3 1.5-2.7 2.3-.3.5-.4 1-.4 1.6 0 .5-.1.8-.6 1.1-.2.2-.5.4-.6.6-.2.3-.2.3-.2 1.1 0 .6.1 1.1.2 1.8.3 1.6.3 1.5-.1 2.1-.5.6-.7 1-.7 1.6 0 .6.2 1.3.5 2.2l.3.6-.3.5c-.6 1.1-.8 2.5-.7 3.6.3 1.4 1.1 2.3 2.4 2.5 1 .1 1.7-.1 2.9-.8.3-.2.5-.3.5-.3.1.1.8 1.1.8 1.2 0 0-.5.5-1.2.9-1.3 1-2.4 2-2.7 2.6-.1.2-.2.4-.2.7 0 .5.2 1 1.3 2.8.8 1.3 1.3 2.3 1.3 2.5 0 .1-2 1.1-5.1 2.5-4.2 1.8-5.5 2.6-6.8 3.9-1.2 1.2-1.9 2.8-1.9 4.3v.3H379c-.1-.9-.1-1.4-.4-2.1-.3-1-1-2.1-1.7-2.8-1.2-1.1-3.4-2.3-8.4-4.5-2.7-1.2-3.1-1.4-3.1-1.5 0-.1.9-2.2 1.8-4.2.3-.5.5-1.2.6-1.5.2-.5.2-1.1 0-1.5-.3-.6-1.2-1.3-3.1-2.3-.7-.4-1.2-.6-1.2-.6-.1 0 .6-1.2.8-1.3 0 0 .5.1.9.2 1 .3 1.7.4 2.3.3.6-.2 1.5-1 1.9-1.8.5-1 .5-3 0-4.2-.2-.4-.7-.9-1.2-1.3-.3-.2-.3-.4.1-1.5.4-1.2.4-1.4.3-2.4-.3-3-.9-4.7-2-5.3-.2-.1-.3-.2-.3-.2s.1-.3.1-.6c.3-1 .1-2-.4-3.1s-1.4-2.1-2.4-2.5c-.6-.3-.6-.3-1.2-.3-.5 0-.7 0-.9.2-.2.1-.3.1-.4.1 0 0-.1-.2-.3-.4-.1-.2-.3-.5-.5-.6-.3-.2-.3-.2-.8-.2-.4 0-.6 0-.9.2-.3.1-.4.2-.5.1-.1-.2-.8-1.1-1.2-1.3.2-.3-.3-.4-1-.4z" fill="none" stroke="#fff" stroke-width=".75" stroke-miterlimit="10"/><path d="M346.9 20.7c.5 0 1 .2 1.7.7.4.3 1.2.5 1.7.5.1 0 .6-.1.9-.1.8-.2 1-.1 1.8.4.9.6 1 .8 1 1.7 0 .4-.1.5-.2.6-.1.1-.2.2-.3.2-.1 0-.6-.9-.6-1.1 0-.1-.8-.6-1.3-.9-1.1-.5-2-.6-2-.1 0 .2.2.4.8.7.6.4.8.6.5.8-.2.2-.4.1-1.1-.3-.6-.4-1-.5-1.8-.7-.9-.2-1.4-.1-2.1.4-.5.4-1.3 1.3-1.3 1.7-.1.2-.1.3-.2.3h-.7c-.5 0-.6 0-.8.2-.4.3-.6.7-.6 1.3-.1.6-.2.9-.6 1.1-.3.2-.4.2-.6 0-.4-.2-.3-.6.1-1.4.8-1.2 3-3 4.1-3.2.4-.1 1-.4 1.3-.8.3-.3.2-.4 0-.6l-.2-.2h-.8c-.8 0-.8 0-.9-.1-.1-.2.4-.5 1-.8.4-.1.8-.3 1.2-.3zm13 .6s.1 0 0 0c.3.1.3.3.1.3-.2.1-1.1 1-1.4 1.5-.5.7-.7 1.5-.4 1.8.1.1.2.1.7 0 .7-.2 1.6-.3 2-.3 1 .1 2 1.1 1.8 1.6 0 .1-.1.2-.1.2 0 .1-.1 0-.3-.1-.3-.3-.8-.4-1.3-.4-.4 0-.7.2-1.2.5-.3.2-.4.2-.8.2s-.5 0-.7-.2c-.3-.2-.4-.4-.5-.9-.1-.3-.1-.4-.4-.7-.4-.4-.6-.8-.5-1.3.1-.5.4-1 .7-1.3.5-.3 1.8-.9 2.3-.9zm1.1 6.1c.2 0 .3 0 .9.2.6.2.7.2 1.1.6.4.4.8 1.1 1 1.9.1.5.2.6.2 1 0 .2 0 .2-.2.2-.4 0-.9-.5-1.4-1.6-.5-.9-.7-1.2-1.3-1.7-.3-.3-.5-.5-.5-.6h.2c-.1 0 0 0 0 0zm2.8 5.7c.4 0 .9.3 1.1.8.2.4.2.6-.3.8-.7.2-1.2.9-1.2 1.6 0 .5.1.8.5 1.2.8.8 1.9.8 2.6-.1.5-.7.7-.7 1.1-.1.2.3.2.5.3.8 0 .4 0 .4-.2.6-.2.1-.5.3-.7.4-.6.2-1.1.2-1.5.1-.5-.1-1.2-.5-1.6-.9-.9-.8-1.6-2.4-1.4-3.1.2-.8.7-1.7 1.1-2-.1 0 .1-.1.2-.1z" fill="#fff"/><path d="M360.6 38.2c-.1-.4-.3-.7-.5-.6-.2.1-.4.6-.4 1.1 0 .4 0 .5-.2.7-.3.4-.6.6-1 .8-.5.3-.7.3-1 .1-.2-.2-.2-.4 0-.6.2-.3.2-.3-.1-.4-.4-.2-.3-.4.4-.5.3-.1.5-.1.6-.2.2-.1.5-.5.7-.8.2-.4.2-.6-.2-.9-.2-.2-.3-.1-.3.2 0 .9-.9 1.5-1.7 1.2-.5-.2-.7-.6-.7-1.1 0-.4-.1-.4-.5-.1-.2.1-.3.3-.4.4 0 .2 0 .2.4.6.2.2.4.5.4.5 0 .2-.3.3-.5.3-.3 0-.4.1-.2.7.1.3.2 1 .2 1.4.1 1 0 .8.6 1.5.1.1.1.3.2.4.1.2 0 .3-.1.5-.1.3-.4.6-.7.8-.1.1-.3.2-.3.4-.2.4-.4.4-1 .3-.7-.1-.9-.1-1.2.1-.3.3-.6.1-.9-.4-.1-.2-.2-.3-.3-.4-.1-.1-.2-.1-.6.1-.6.2-.8.2-1.2-.2-.4-.3-.5-.7-.4-1 .1-.1.1-.2.3-.2.2 0 .2 0 .3.2.1.1.1.2.1.2l.4-.4c.2-.2.5-.4.6-.4.3 0 .6.4.7.9.1.4.1.5.4.6.5.2 1-.1 1.2-.7.1-.2 0-.4-.1-.9-.2-.6-.2-.5 0-2.7 0-.6 0-.7-.2-1.5-.3-1.1-.3-1.4-.2-2 .1-.7.3-1 .7-1.4.5-.4 1.4-.8 2.1-1 .9-.3 2-.2 2.8.3.2.2.4.2.4.1.2-.1.3-.6.3-1s-.2-.8-.8-1.7c-.5-.7-.7-1.2-.7-1.6 0-.1.1-.5.1-1 .1-.9.1-1.4-.1-1.9-.3-.6-1-1.2-1.6-1.4-.2-.1-.5-.1-1.3 0-1.7.2-1.8.2-3-.3-1-.3-1.2-.4-1.6-.4-.6 0-2.5.2-3.1.3-1.4.3-2.5 1.4-3 2.9-.2.6-.3 1.6-.2 2.1.1.5 0 .8-.6 2-.2.5-.5 1.1-.5 1.3-.1.2-.1.8 0 2.5.1 3.2.1 3.3-.1 3.6-.1.1-.3.3-.5.4-.5.3-.6.7-.4 1.7.1.7.2.9.6 1 .4.2.4.1.7-.3.4-.6.6-.5.5.3 0 .8.4 2.3.9 3.5l.3.7-.3.8c-.1.4-.4 1.2-.5 1.7-.3 1.3-.3 1.7.1 2.6 1.1 2.2 2.3 3.8 4.2 5.1.9.6 1.1.7 1.6.4.4-.3 1.5-1.4 2-2.1.6-.9.8-1.4.6-1.6-.1 0-.4-.1-.8-.1-1.7-.1-2.9-.8-4.5-2.2-.7-.7-1.3-1.5-1.8-2.6-.6-1.2-.5-1.3.5-.3 1.5 1.4 2.7 2.3 3.5 2.7l.5.2h1.4c1.5 0 1.9-.1 2.3-.4.4-.3.6-.7.6-1.2 0-.7-.4-1-1.3-1.2-.3-.1-.5 0-1 0-.7.1-1 .1-1.3 0-.8-.3-.5-.8.6-.9.4 0 .6 0 1.3.1.7.2.9.2 1.1.1.4-.1.7-.4.8-.7.1-.3 0-.6-.4-.7-.4-.2-.6-.2-1.2.1-.6.2-.8.2-1.3.1-.3-.1-.3-.1-.8.1-.3.1-.6.2-.7.2s-.3-.1-.5-.3c-.2-.2-.4-.3-.4-.3s-.2.1-.3.2c-.3.2-.3.2-.5.1s-.2-.3 0-.7c.2-.4.4-.4.8-.2.5.2.7.2 1-.1.5-.5.8-.4 1.4.1.5.5.6.5 1.1 0 .5-.5.8-.6 1.5-.1.2.1.4.3.5.3s.3-.1.5-.2.5-.2.6-.2c.2 0 .5.4.5.8 0 .5.1.6.6.6h.4l.4-.4c.7-.7 1.8-2.7 2.1-3.5.1-.3.1-.8.2-1.6 0-1.1.1-1.3.3-2 .1-.4.2-.8.1-1.4zm-10.7-1.3l-.3-.3c-.3-.1-.3 0-.3.4 0 .2 0 .4-.1.6-.2.3-.7.8-.9.8-.3.1-.9-.2-1.2-.5-.2-.3-.2-.3-.2-.7 0-.4 0-.4-.1-.5-.2 0-.5.3-.6.6-.1.4.3 1 .7 1 .2 0 .1.2-.1.4-.1.1-.2.2-.5.1-.4 0-.6-.2-.9-.8l-.2-.4h-.3c-.3 0-.4 0-.6-.2l-.3-.3v-.5c0-.7.3-1.2.7-1.7.7-.7 1.8-1.1 3-1.1.3 0 .7 0 1 .1.6.1 1.6.7 2.3 1.4.4.4.5.5.6 1.1.1.4.1.5-.1 1.4l-.2 1 .1.9c.2 1 .2 1.3.1 1.6s-.3.3-.5 0c-.3-.4-.7-1.1-.7-1.4 0-.3 0-.3.2-.8.2-.4.3-.5.3-.8 0-.5-.1-.5-.5-.1-.3.2-.4.3-.6.3-.4 0-.4-.1-.2-.5.1-.2.3-.4.3-.6.2-.3.2-.3.1-.5z" fill="#fff"/><path d="M347.2 34.5c.3 0 .5 0 .7.1.8.3 1.2.7 1.2 1.1 0 .2 0 .3-.3 0-.2-.1-.3-.2-.5-.2h-.2v.6h-.3c-.2 0-.5 0-.7.1s-.4.1-.4.1v-.2c0-.2 0-.2-.2-.2s-.3.1-.6.4c-.4.4-.6.5-.9.2-.2-.2-.1-.4.1-.8.3-.6.8-1 1.5-1.1.2-.1.4-.1.6-.1zm10.4.4c.1 0 .2 0 .4.1.5.1.8.3 1.1.6.2.2.2.3.2.5s-.1.3-.1.3-.2-.1-.4-.3c-.2-.2-.4-.4-.5-.4s-.1 0-.1.2c0 .3 0 .3-.5.1-.5-.2-.7-.1-1.3.1-.6.2-.7.2-.7 0 0-.3.1-.4.5-.5.3-.1.4-.2.4-.3 0-.2.1-.3.6-.4h.4zm-9.6 1.6h.2c.2.1.2.4 0 .6-.3.4-.7 0-.6-.5.1 0 .2-.1.4-.1zm9.2 0c.1 0 .2.1.3.2.1.1.1.2 0 .3 0 .1-.1.2-.2.2-.1.1-.2 0-.3-.1-.2-.2-.2-.4 0-.6.1.1.2 0 .2 0zm-2.6 5.9l.2.1c.3.1.4.3.5.6 0 .2-.1.6-.2.7-.1 0-.2.1-.3.1-.2 0-.2 0-.2-.1s0-.2.1-.4.1-.3.1-.6l-.2-.4zm6.6 6.5c.2.1.2.4.5 1.9.2 1.4.2 1.8.1 2.3-.3.9-1.2 2.3-1.9 3.1-.3.3-1.5 1.1-2.3 1.5-.8.4-1.2.4-1.6.2-.4-.3-.8-.6-1.1-1-.4-.5-1.2-2.2-1.2-2.4 0-.2.2-.2 1.2-.5 1.3-.3 3.4-1.5 4.5-2.6.7-.7 1-1.2 1.3-1.9.3-.4.4-.6.5-.6zm-16.4 5.6c.1 0 .4.4.8 1 1.2 1.6 2 2.4 3.2 3 .6.3.8.6 1.3 1.5.3.6.4.9.2 1-.3.3-.7.2-1.7-.3-1.6-.8-2.8-2.4-3.7-5.1-.3-.8-.3-1.1-.1-1.1zm-3 .5c.1 0 .5.4.8.9.2.3.5.8.7 1.1.2.4.8 1.1 1.2 1.7.4.6 1 1.4 1.3 1.8.4.5.6.8.6 1 0 .2 0 .2-.2.2-.5 0-.6-.1-1.6-1.6-1.2-1.8-2.2-3.4-2.6-4.2-.3-.5-.3-.7-.2-.9-.2.1-.1 0 0 0zm19.9.5c.1 0 .1 0 0 0 .2.1.2.1.1.7 0 .4-.1.8-.2 1.1-.4 1.2-1.9 3.4-2.9 4-.6.4-1 .4-1.5-.1-.3-.3-.5-.7-.5-.9s.2-.3.8-.5c.3-.1.8-.3 1-.4 1-.6 2.4-2.3 2.8-3.3.2-.5.3-.6.4-.6zm-8.1.9c.2 0 .4.3.5.9.1.7-.3 1.7-.7 1.9-.1.1-.2.1-.5 0-.4-.1-.6 0-1 .4s-.4.5.1.8c.3.1.4.2 1 .2h.7l.2-.2c.1-.1.2-.4.3-.6.2-.6.3-.8.6-.9.3-.1.3-.1.7.6.3.5.3.7-.1 1-.4.4-1.2.8-2.3 1-.6.1-.5.1-.8 0-.7-.2-1.4-1.5-1.4-2.6 0-.8.4-1.1 1.3-.8.6.2.9.2 1.1-.2.1-.2.1-.3.1-.8 0-.4 0-.6.2-.7-.2.1-.1 0 0 0z" fill="#fff"/><path d="M345.6 61.6c-.2-.1-.4-.4-1.2-1.5-1.2-1.8-2.2-3.4-2.6-4.2-.3-.5-.3-.7-.3-.8s.1-.1.2-.1.5.4.8.9c.2.3.5.8.7 1.1.2.4.8 1.1 1.2 1.7.4.6 1 1.4 1.3 1.8.4.5.6.8.6 1 0 .2 0 .2-.2.2-.1 0-.3 0-.5-.1zm6.7 0c-.7-.2-1.4-1.5-1.4-2.6 0-.8.4-1.1 1.3-.8.6.2.9.2 1.1-.2.1-.2.1-.3.1-.8 0-.4 0-.6.1-.8.2-.4.6-.1.7.7.1.7-.3 1.7-.7 1.9-.1.1-.2.1-.5 0-.4-.1-.6 0-1 .4s-.4.5.1.8c.3.1.4.2 1 .2h.7l.2-.2c.1-.1.2-.4.3-.6.2-.6.3-.8.6-.9.3-.1.3-.1.7.6.3.5.3.7-.1 1-.4.4-1.2.8-2.3 1-.6.4-.6.4-.9.3zm5.5-.1c-.5-.2-1-.9-1-1.2 0-.2.2-.3.8-.5.3-.1.8-.3 1-.4 1-.6 2.4-2.3 2.8-3.3.2-.5.3-.6.4-.6s.1.1.1.7c0 .4-.1.8-.2 1.1-.4 1.2-1.9 3.4-2.9 4-.4.3-.7.4-1 .2zm-8.3-.4c-2.1-.8-3.5-2.4-4.5-5.5-.3-.9-.3-1.1-.1-1.1.1 0 .4.4.8 1 1.2 1.6 2 2.4 3.2 3 .4.2.6.4.8.6.3.5.8 1.4.8 1.6 0 .4-.4.6-1 .4zm.1-3.1c-.3-.1-1.2-.8-1.9-1.3-1.2-1-2.3-2.5-3.1-4.2-.4-.9-.5-1.3-.1-2.6.1-.5.4-1.3.5-1.7l.3-.8-.3-.7c-.6-1.2-1-2.7-.9-3.5 0-.8-.1-.9-.5-.3-.3.4-.4.4-.7.3-.4-.2-.5-.4-.6-1-.2-1-.1-1.4.4-1.7.2-.1.4-.3.5-.4.2-.3.2-.4.1-3.6V34c0-.2.3-.7.5-1.3.6-1.2.6-1.5.6-2-.1-.5.1-1.6.2-2.1.5-1.5 1.6-2.6 3-2.9.6-.1 2.5-.3 3.1-.3.5 0 .7 0 1.6.4 1.3.4 1.4.4 3 .3.8-.1 1.1-.1 1.3 0 .6.2 1.3.8 1.6 1.4.3.5.3 1 .1 1.9-.1.5-.1.9-.1 1 0 .4.2.9.7 1.6.6.9.8 1.3.8 1.7s-.2.9-.3 1c-.1 0-.2 0-.4-.1-.8-.5-1.8-.6-2.8-.3-.7.2-1.6.7-2.1 1-.5.4-.6.7-.7 1.4-.1.6-.1.9.2 2 .2.7.2.9.2 1.5-.1 2.1-.1 2 0 2.7.1.5.1.6.1.9-.1.5-.7.9-1.2.7-.3-.1-.3-.2-.4-.6-.1-.5-.4-.9-.7-.9-.1 0-.3.2-.6.4l-.4.4s-.1-.1-.1-.2c-.1-.2-.1-.2-.3-.2-.2 0-.2.1-.3.2-.1.3 0 .6.4 1s.6.4 1.2.2c.5-.2.5-.2.6-.1.1.1.2.2.3.4.3.5.5.6.9.4.3-.2.5-.2 1.2-.1.6.1.7.1 1-.3.1-.1.2-.3.3-.4.3-.2.6-.5.7-.8.1-.2.1-.3.1-.5s-.1-.3-.2-.4c-.5-.7-.5-.6-.6-1.5 0-.5-.1-1.1-.2-1.4-.1-.6-.1-.7.2-.7.2 0 .5-.2.5-.3s-.2-.3-.4-.5c-.4-.4-.4-.4-.4-.6 0-.1.2-.3.4-.4.5-.3.5-.3.5.1 0 1 1 1.5 1.8 1 .4-.2.6-.7.6-1.1 0-.3.1-.3.3-.2.4.2.4.4.2.9-.1.3-.5.7-.7.8-.1 0-.3.1-.6.2-.7.1-.9.3-.4.5.3.1.3.1.1.4-.2.3-.2.4 0 .6.2.2.4.2 1-.1.5-.2.7-.4 1-.8.2-.2.2-.3.2-.7 0-.5.2-1 .4-1.1.2-.1.4.3.5.6.1.6.1 1-.1 1.8-.2.6-.2.9-.3 2 0 .8-.1 1.4-.2 1.6-.2.8-1.4 2.8-2.1 3.5l-.4.4h-.4c-.5 0-.6-.1-.6-.6 0-.4-.2-.8-.5-.8-.1 0-.3.1-.6.2-.2.1-.5.2-.5.2-.1 0-.3-.1-.5-.3-.7-.5-1-.4-1.5.1s-.6.5-1.1 0c-.6-.6-.8-.6-1.4-.1-.4.3-.6.3-1 .1-.4-.2-.6-.2-.8.2-.2.4-.2.6 0 .7.2.1.2.1.5-.1.2-.1.3-.2.3-.2s.2.1.4.3c.2.2.5.3.5.3.1 0 .4-.1.7-.2.5-.2.5-.2.8-.1.5.2.7.1 1.3-.1.3-.1.6-.2.7-.2.3 0 .7.2.9.4.2.4-.1.9-.7 1.1-.2.1-.4 0-1.1-.1-.7-.2-.9-.2-1.3-.1-1 .1-1.3.6-.6.9.3.2.6.2 1.3 0 .5-.1.7-.1 1 0 .9.1 1.3.5 1.3 1.2 0 .5-.2.9-.6 1.2-.5.4-.8.4-2.3.4h-1.4l-.5-.2c-.8-.4-2-1.3-3.5-2.7-1-1-1.1-.9-.5.3.5 1.1 1.1 1.9 1.8 2.6 1.5 1.5 2.8 2.1 4.5 2.2.4 0 .8.1.8.1.2.2.1.6-.6 1.6-.4.6-1.5 1.8-2 2.1-.4-.3-.6-.2-.9-.4zm2-16.8c.1-.3.1-.7-.1-1.6l-.1-.9.2-1c.2-.9.2-1 .1-1.4-.1-.6-.2-.7-.6-1.1-.7-.7-1.7-1.2-2.3-1.4-1.5-.3-3.2.1-4 1-.4.5-.6 1-.7 1.7v.5l.3.3c.3.2.3.3.6.2h.3l.2.4c.3.6.5.7.9.8.3 0 .3 0 .5-.1.2-.2.2-.4.1-.4-.3 0-.8-.7-.7-1 .1-.3.4-.6.6-.6.1 0 .2 0 .1.5 0 .4 0 .4.2.7.3.3.9.6 1.2.5.3-.1.8-.5.9-.8.1-.2.1-.3.1-.6-.1-.4 0-.5.3-.4.1.1.3.2.3.3.1.2.1.2 0 .4-.1.1-.2.4-.3.6-.3.4-.2.5.2.5.2 0 .3-.1.6-.3.5-.4.6-.4.5.1 0 .3-.1.5-.3.8-.3.4-.3.5-.2.8.1.5.8 1.7 1 1.7 0 .1.1 0 .1-.2zm-3.8-3.9c-.3-.2-.2-.7.1-.8.3-.1.4.1.4.3.1.5-.2.7-.5.5zm-2.7-.8c-.2-.2-.1-.4.1-.8.3-.6.8-1 1.5-1.1.6-.1.8-.1 1.3.1.8.3 1.2.7 1.2 1.1 0 .2 0 .3-.3 0-.2-.1-.3-.2-.5-.2h-.2v.6h-.3c-.2 0-.5 0-.7.1s-.4.1-.4.1v-.2c0-.2 0-.2-.2-.2s-.3.1-.6.4c-.5.3-.7.3-.9.1zM356 57.9c-.4-.3-.8-.6-1.1-1-.4-.5-1.2-2.2-1.2-2.4 0-.2.2-.2 1.2-.5 1.3-.3 3.4-1.5 4.5-2.6.7-.7 1-1.2 1.3-1.9.2-.5.3-.7.5-.6.1 0 .2.4.4 1.9.2 1.4.2 1.8.1 2.3-.3.9-1.2 2.3-1.9 3.1-.3.3-1.5 1.1-2.3 1.5-.7.4-1.1.5-1.5.2zm-1.5-14.1c0-.1 0-.2.1-.4s.1-.3.1-.6v-.4l.2.1c.4.2.6.6.4 1-.1.3-.2.4-.5.4-.2.1-.3.1-.3-.1zm-16.6-2.2c-.2-.2-.3-.3-.5-.6-.1-.2-.1-.3-.1-.7 0-.2.1-.6.2-.8.1-.3.2-.4.3-.4.3 0 .3 0 .4.5 0 .3.1.4.2.5.3.3.8.2 1.3-.4l.3-.3.3.1c.2.1.3.1.3.2s-.3.5-.6.9c-.4.6-.7.8-.9.9-.6.2-1 .2-1.2.1zm27.5-2.3c-.5-.1-1.2-.5-1.6-.9-.9-.8-1.6-2.4-1.4-3.1.2-.8.7-1.7 1.1-2s1.2.1 1.5.7c.2.4.2.6-.3.8-.7.2-1.2.9-1.2 1.6 0 .5.1.8.5 1.2.8.8 1.9.8 2.6-.1.5-.7.7-.7 1.1-.1.2.3.2.5.3.8 0 .4 0 .4-.2.6-.8.4-1.8.6-2.4.5zm-8.3-2c-.2-.2-.2-.4 0-.6.1-.2.4-.1.5.1.1.2.1.4-.2.6-.1 0-.2 0-.3-.1zm1.7-1.2c-.2-.2-.4-.4-.5-.4s-.1 0-.1.2c0 .3 0 .3-.5.1-.5-.2-.7-.1-1.3.1-.6.2-.7.2-.7 0 0-.3.1-.4.5-.5.3-.1.4-.2.4-.3 0-.2.1-.3.6-.4.4-.1.5-.1.8 0 .5.1.8.3 1.1.6.2.2.2.3.2.5s-.1.3-.1.3c0 .2-.2 0-.4-.2zm4.9-4.8c-.3-.2-.7-.7-1.1-1.4-.5-.9-.7-1.2-1.3-1.7-.6-.6-.7-.8-.1-.7.1 0 .4.1.8.2.6.2.7.2 1.1.6.7.7 1.2 2 1.2 2.9 0 .2 0 .2-.2.2-.1 0-.3 0-.4-.1zM341 28.2c-.4-.2-.3-.6.1-1.4.8-1.2 3-3 4.1-3.2.4-.1 1-.4 1.3-.8.3-.3.2-.4 0-.6l-.2-.2h-.8c-.8 0-.8 0-.9-.1-.1-.2.4-.5 1-.8 1.2-.6 1.8-.5 3 .3.4.3 1.2.5 1.7.5.1 0 .6-.1.9-.1.8-.2 1-.1 1.8.4.9.6 1 .8 1 1.7 0 .4-.1.5-.2.6-.1.1-.2.2-.3.2-.1 0-.6-.9-.6-1.1 0-.1-.8-.6-1.3-.9-1.1-.5-2-.6-2-.1 0 .2.2.4.8.7.6.4.8.6.5.8-.2.2-.4.1-1.1-.3-.6-.4-1-.5-1.8-.7-.9-.2-1.4-.1-2.1.4-.5.4-1.3 1.3-1.3 1.7-.1.2-.1.3-.2.3h-.7c-.5 0-.6 0-.8.2-.4.3-.6.7-.6 1.3-.1.6-.2.9-.6 1.1-.4.2-.5.2-.7.1zm17.5-1.5c-.3-.2-.4-.4-.5-.9-.1-.3-.1-.4-.4-.7-.4-.4-.6-.8-.5-1.3s.4-1 .7-1.3c.5-.5 2-1.1 2.3-1 .2.1.2.3 0 .3-.2.1-1.1 1-1.4 1.5-.5.7-.7 1.5-.4 1.8.1.1.2.1.7 0 .7-.2 1.6-.3 2-.3 1 .1 2 1.1 1.8 1.6 0 .1-.1.2-.1.2 0 .1-.1 0-.3-.1-.3-.3-.8-.4-1.3-.4-.4 0-.7.2-1.2.5-.3.2-.4.2-.8.2-.3 0-.4 0-.6-.1z" fill="none"/></svg>